# File produced by Open Asset Import Library (http://www.assimp.sf.net)
# (assimp v3.1.35440475)

mtllib PBR - Metallic Roughness.mtl

# 80 vertex positions
v  0.951057 0.10202 0.309017
v  0.475529 0.10202 0.154509
v  0.404509 0.10202 0.293893
v  0.809018 0.10202 0.587786
v  0.293893 0.10202 0.404509
v  0.587786 0.10202 0.809017
v  0.154509 0.10202 0.475529
v  0.309017 0.10202 0.951057
v  0 0.10202 0.5
v  0 0.10202 1
v  -0.154509 0.10202 0.475528
v  -0.309017 0.10202 0.951057
v  -0.293893 0.10202 0.404509
v  -0.587785 0.10202 0.809017
v  -0.404509 0.10202 0.293893
v  -0.809017 0.10202 0.587785
v  -0.475528 0.10202 0.154509
v  -0.951057 0.10202 0.309017
v  -0.5 0.10202 0
v  -1 0.10202 0
v  -0.475528 0.10202 -0.154509
v  -0.951057 0.10202 -0.309017
v  -0.404509 0.10202 -0.293893
v  -0.809017 0.10202 -0.587785
v  -0.293893 0.10202 -0.404509
v  -0.587785 0.10202 -0.809017
v  -0.154509 0.10202 -0.475528
v  -0.309017 0.10202 -0.951057
v  -1.49012e-08 0.10202 -0.5
v  -2.98023e-08 0.10202 -1
v  0.154508 0.10202 -0.475528
v  0.309017 0.10202 -0.951057
v  0.293893 0.10202 -0.404509
v  0.587785 0.10202 -0.809017
v  0.404509 0.10202 -0.293893
v  0.809017 0.10202 -0.587785
v  0.475528 0.10202 -0.154509
v  0.951057 0.10202 -0.309017
v  0.5 0.10202 0
v  1 0.10202 0
v  0.951057 -0.10202 0.309017
v  0.809018 -0.10202 0.587786
v  0.587786 -0.10202 0.809017
v  0.309017 -0.10202 0.951057
v  0 -0.10202 1
v  -0.309017 -0.10202 0.951057
v  -0.587785 -0.10202 0.809017
v  -0.809017 -0.10202 0.587785
v  -0.951057 -0.10202 0.309017
v  -1 -0.10202 0
v  -0.951057 -0.10202 -0.309017
v  -0.809017 -0.10202 -0.587785
v  -0.587785 -0.10202 -0.809017
v  -0.309017 -0.10202 -0.951057
v  -2.98023e-08 -0.10202 -1
v  0.309017 -0.10202 -0.951057
v  0.587785 -0.10202 -0.809017
v  0.809017 -0.10202 -0.587785
v  0.951057 -0.10202 -0.309017
v  1 -0.10202 0
v  0.814493 -0.0301412 0.264645
v  0.692849 -0.0301412 0.503384
v  0.503384 -0.0301412 0.692849
v  0.264645 -0.0301412 0.814493
v  4.24871e-08 -0.0301412 0.856408
v  -0.264645 -0.0301412 0.814493
v  -0.503384 -0.0301412 0.692849
v  -0.692849 -0.0301412 0.503384
v  -0.814493 -0.0301412 0.264645
v  -0.856408 -0.0301412 -6.37307e-08
v  -0.814493 -0.0301412 -0.264645
v  -0.692849 -0.0301412 -0.503384
v  -0.503384 -0.0301412 -0.692849
v  -0.264645 -0.0301412 -0.814493
v  1.69642e-08 -0.0301412 -0.856408
v  0.264645 -0.0301412 -0.814493
v  0.503384 -0.0301412 -0.692849
v  0.692849 -0.0301412 -0.503384
v  0.814492 -0.0301412 -0.264645
v  0.856408 -0.0301412 -6.37307e-08

# 122 UV coordinates
vt 0.648603 0.107966 0
vt 0.574301 0.132108 0
vt 0.563205 0.110329 0
vt 0.626409 0.0644085 0
vt 0.545921 0.0930455 0
vt 0.591842 0.029841 0
vt 0.524142 0.0819487 0
vt 0.548284 0.00764734 0
vt 0.5 0.078125 0
vt 0.5 -7.45058e-08 0
vt 0.475858 0.0819487 0
vt 0.451716 0.00764735 0
vt 0.454079 0.0930455 0
vt 0.408159 0.0298411 0
vt 0.436796 0.110329 0
vt 0.373591 0.0644085 0
vt 0.425699 0.132108 0
vt 0.351397 0.107966 0
vt 0.421875 0.15625 0
vt 0.34375 0.15625 0
vt 0.425699 0.180392 0
vt 0.351397 0.204534 0
vt 0.436796 0.202171 0
vt 0.373591 0.248091 0
vt 0.454079 0.219454 0
vt 0.408159 0.282659 0
vt 0.475858 0.230551 0
vt 0.451716 0.304853 0
vt 0.5 0.234375 0
vt 0.5 0.3125 0
vt 0.524142 0.230551 0
vt 0.548284 0.304853 0
vt 0.545921 0.219454 0
vt 0.591841 0.282659 0
vt 0.563204 0.202171 0
vt 0.626409 0.248091 0
vt 0.574301 0.180392 0
vt 0.648603 0.204534 0
vt 0.578125 0.15625 0
vt 0.65625 0.15625 0
vt 0.375 0.68844 0
vt 0.375 0.3125 0
vt 0.3875 0.3125 0
vt 0.3875 0.68844 0
vt 0.4 0.3125 0
vt 0.4 0.68844 0
vt 0.4125 0.3125 0
vt 0.4125 0.68844 0
vt 0.425 0.3125 0
vt 0.425 0.68844 0
vt 0.4375 0.3125 0
vt 0.4375 0.68844 0
vt 0.45 0.3125 0
vt 0.45 0.68844 0
vt 0.4625 0.3125 0
vt 0.4625 0.68844 0
vt 0.475 0.3125 0
vt 0.475 0.68844 0
vt 0.4875 0.3125 0
vt 0.4875 0.68844 0
vt 0.5 0.3125 0
vt 0.5 0.68844 0
vt 0.5125 0.3125 0
vt 0.5125 0.68844 0
vt 0.525 0.3125 0
vt 0.525 0.68844 0
vt 0.5375 0.3125 0
vt 0.5375 0.68844 0
vt 0.55 0.3125 0
vt 0.55 0.68844 0
vt 0.5625 0.3125 0
vt 0.5625 0.68844 0
vt 0.575 0.3125 0
vt 0.575 0.68844 0
vt 0.5875 0.3125 0
vt 0.5875 0.68844 0
vt 0.6 0.3125 0
vt 0.6 0.68844 0
vt 0.6125 0.3125 0
vt 0.6125 0.68844 0
vt 0.625 0.3125 0
vt 0.625 0.68844 0
vt 0.574301 0.867892 0
vt 0.648603 0.892034 0
vt 0.626409 0.935591 0
vt 0.563204 0.889671 0
vt 0.591841 0.970159 0
vt 0.545921 0.906954 0
vt 0.548284 0.992353 0
vt 0.524142 0.918051 0
vt 0.5 1 0
vt 0.5 0.921875 0
vt 0.451716 0.992353 0
vt 0.475858 0.918051 0
vt 0.408159 0.970159 0
vt 0.454079 0.906954 0
vt 0.373591 0.935591 0
vt 0.436796 0.889671 0
vt 0.351397 0.892034 0
vt 0.425699 0.867892 0
vt 0.34375 0.84375 0
vt 0.421875 0.84375 0
vt 0.351397 0.795466 0
vt 0.425699 0.819608 0
vt 0.373591 0.751909 0
vt 0.436796 0.797829 0
vt 0.408159 0.717341 0
vt 0.454079 0.780546 0
vt 0.451716 0.695147 0
vt 0.475858 0.769449 0
vt 0.5 0.6875 0
vt 0.5 0.765625 0
vt 0.548284 0.695147 0
vt 0.524142 0.769449 0
vt 0.591842 0.717341 0
vt 0.545921 0.780545 0
vt 0.626409 0.751908 0
vt 0.563205 0.797829 0
vt 0.648603 0.795466 0
vt 0.574301 0.819608 0
vt 0.65625 0.84375 0
vt 0.578125 0.84375 0

# 83 vertex normals
vn 0 1 -1.22465e-16
vn 0 1 3.32587e-09
vn 0 1 3.32587e-09
vn 0 1 2.30964e-09
vn 0 1 -6.55936e-09
vn 0 1 2.30964e-09
vn 0 1 -6.55937e-09
vn 0 1 1.2934e-09
vn 0 1 -1.31187e-08
vn 0 1 3.32588e-09
vn 0 1 9.8375e-16
vn 0 1 5.35836e-09
vn 0 1 1.31187e-08
vn 0 1 3.32588e-09
vn 0 1 2.30964e-09
vn 0 1 -6.55937e-09
vn 0 1 1.2934e-09
vn 0 1 -1.31187e-08
vn 0 1 -6.55937e-09
vn 0 1 1.31187e-08
vn 0 1 2.08997e-15
vn 0 1 1.2934e-09
vn 0 1 -1.31187e-08
vn 0.951057 3.78435e-17 0.309016
vn 0.809017 7.19829e-17 0.587785
vn 0.587785 9.9076e-17 0.809017
vn 0.309017 1.16471e-16 0.951057
vn -9.20956e-08 1.22465e-16 1
vn -0.309017 1.16471e-16 0.951056
vn -0.587785 9.9076e-17 0.809017
vn -0.809017 7.19829e-17 0.587785
vn -0.951057 3.78437e-17 0.309017
vn -1 0 0
vn -0.951057 -3.78437e-17 -0.309017
vn -0.809017 -7.1983e-17 -0.587785
vn -0.587785 -9.9076e-17 -0.809017
vn -0.309017 -1.16471e-16 -0.951057
vn 9.20956e-08 -1.22465e-16 -1
vn 0.309017 -1.16471e-16 -0.951057
vn 0.587785 -9.9076e-17 -0.809017
vn 0.809017 -7.19829e-17 -0.587785
vn 0.951057 -3.78437e-17 -0.309017
vn 1 -1.17484e-22 -9.59329e-07
vn -0.00960564 -0.999949 -0.00312105
vn -0.425718 -0.894221 -0.138324
vn -0.362137 -0.894221 -0.263108
vn -0.00817104 -0.999949 -0.00593661
vn -0.263108 -0.894221 -0.362137
vn -0.00593661 -0.999949 -0.00817104
vn -0.138324 -0.894221 -0.425717
vn -0.00312106 -0.999949 -0.00960563
vn 8.03953e-09 -0.894221 -0.447626
vn 5.81078e-11 -0.999949 -0.0101
vn 0.138324 -0.894221 -0.425717
vn 0.00312106 -0.999949 -0.00960563
vn 0.263108 -0.894221 -0.362137
vn 0.00593661 -0.999949 -0.00817103
vn 0.362137 -0.894221 -0.263108
vn 0.00817104 -0.999949 -0.0059366
vn 0.425717 -0.894221 -0.138324
vn 0.00960563 -0.999949 -0.00312106
vn 0.447626 -0.894221 -8.03954e-09
vn 0.0101 -0.999949 1.37248e-09
vn 0.425718 -0.894221 0.138324
vn 0.00960563 -0.999949 0.00312106
vn 0.362137 -0.894221 0.263108
vn 0.00817103 -0.999949 0.00593661
vn 0.263108 -0.894221 0.362137
vn 0.0059366 -0.999949 0.00817104
vn 0.138324 -0.894221 0.425718
vn 0.00312106 -0.999949 0.00960563
vn 5.3597e-09 -0.894221 0.447626
vn 0 -0.999949 0.0101
vn -0.138324 -0.894221 0.425718
vn -0.00312106 -0.999949 0.00960563
vn -0.263108 -0.894221 0.362137
vn -0.00593661 -0.999949 0.00817103
vn -0.362137 -0.894221 0.263108
vn -0.00817103 -0.999949 0.00593661
vn -0.425718 -0.894221 0.138324
vn -0.00960563 -0.999949 0.00312106
vn -0.447626 -0.894221 4.10017e-07
vn -0.0100999 -0.999949 1.11927e-08

# Mesh 'pCylinder1_pCylinder1' with 156 faces
g pCylinder1_pCylinder1
usemtl lambert2
f  1/1/1 2/2/2 3/3/3
f  3/3/3 4/4/1 1/1/1
f  4/4/1 3/3/3 5/5/3
f  5/5/3 6/6/1 4/4/1
f  6/6/1 5/5/3 7/7/3
f  7/7/3 8/8/1 6/6/1
f  8/8/1 7/7/3 9/9/3
f  9/9/3 10/10/1 8/8/1
f  10/10/1 9/9/3 11/11/4
f  11/11/4 12/12/5 10/10/1
f  12/12/5 11/11/4 13/13/6
f  13/13/6 14/14/7 12/12/5
f  14/14/7 13/13/6 15/15/8
f  15/15/8 16/16/9 14/14/7
f  16/16/9 15/15/8 17/17/10
f  17/17/10 18/18/11 16/16/9
f  18/18/11 17/17/10 19/19/12
f  19/19/12 20/20/13 18/18/11
f  20/20/13 19/19/12 21/21/14
f  21/21/14 22/22/1 20/20/13
f  22/22/1 21/21/14 23/23/10
f  23/23/10 24/24/1 22/22/1
f  24/24/1 23/23/10 25/25/14
f  25/25/14 26/26/1 24/24/1
f  26/26/1 25/25/14 27/27/14
f  27/27/14 28/28/1 26/26/1
f  28/28/1 27/27/14 29/29/15
f  29/29/15 30/30/16 28/28/1
f  30/30/16 29/29/15 31/31/17
f  31/31/17 32/32/18 30/30/16
f  32/32/18 31/31/17 33/33/15
f  33/33/15 34/34/19 32/32/18
f  34/34/19 33/33/15 35/35/12
f  35/35/12 36/36/20 34/34/19
f  36/36/20 35/35/12 37/37/10
f  37/37/10 38/38/21 36/36/20
f  38/38/21 37/37/10 39/39/22
f  39/39/22 40/40/23 38/38/21
f  40/40/23 39/39/22 2/2/2
f  2/2/2 1/1/1 40/40/23
f  41/41/24 1/42/24 4/43/25
f  4/43/25 42/44/25 41/41/24
f  42/44/25 4/43/25 6/45/26
f  6/45/26 43/46/26 42/44/25
f  43/46/26 6/45/26 8/47/27
f  8/47/27 44/48/27 43/46/26
f  44/48/27 8/47/27 10/49/28
f  10/49/28 45/50/28 44/48/27
f  45/50/28 10/49/28 12/51/29
f  12/51/29 46/52/29 45/50/28
f  46/52/29 12/51/29 14/53/30
f  14/53/30 47/54/30 46/52/29
f  47/54/30 14/53/30 16/55/31
f  16/55/31 48/56/31 47/54/30
f  48/56/31 16/55/31 18/57/32
f  18/57/32 49/58/32 48/56/31
f  49/58/32 18/57/32 20/59/33
f  20/59/33 50/60/33 49/58/32
f  50/60/33 20/59/33 22/61/34
f  22/61/34 51/62/34 50/60/33
f  51/62/34 22/61/34 24/63/35
f  24/63/35 52/64/35 51/62/34
f  52/64/35 24/63/35 26/65/36
f  26/65/36 53/66/36 52/64/35
f  53/66/36 26/65/36 28/67/37
f  28/67/37 54/68/37 53/66/36
f  54/68/37 28/67/37 30/69/38
f  30/69/38 55/70/38 54/68/37
f  55/70/38 30/69/38 32/71/39
f  32/71/39 56/72/39 55/70/38
f  56/72/39 32/71/39 34/73/40
f  34/73/40 57/74/40 56/72/39
f  57/74/40 34/73/40 36/75/41
f  36/75/41 58/76/41 57/74/40
f  58/76/41 36/75/41 38/77/42
f  38/77/42 59/78/42 58/76/41
f  59/78/42 38/77/42 40/79/43
f  40/79/43 60/80/43 59/78/42
f  60/80/43 40/79/43 1/81/24
f  1/81/24 41/82/24 60/80/43
f  61/83/44 41/84/45 42/85/46
f  42/85/46 62/86/47 61/83/44
f  62/86/47 42/85/46 43/87/48
f  43/87/48 63/88/49 62/86/47
f  63/88/49 43/87/48 44/89/50
f  44/89/50 64/90/51 63/88/49
f  64/90/51 44/89/50 45/91/52
f  45/91/52 65/92/53 64/90/51
f  65/92/53 45/91/52 46/93/54
f  46/93/54 66/94/55 65/92/53
f  66/94/55 46/93/54 47/95/56
f  47/95/56 67/96/57 66/94/55
f  67/96/57 47/95/56 48/97/58
f  48/97/58 68/98/59 67/96/57
f  68/98/59 48/97/58 49/99/60
f  49/99/60 69/100/61 68/98/59
f  69/100/61 49/99/60 50/101/62
f  50/101/62 70/102/63 69/100/61
f  70/102/63 50/101/62 51/103/64
f  51/103/64 71/104/65 70/102/63
f  71/104/65 51/103/64 52/105/66
f  52/105/66 72/106/67 71/104/65
f  72/106/67 52/105/66 53/107/68
f  53/107/68 73/108/69 72/106/67
f  73/108/69 53/107/68 54/109/70
f  54/109/70 74/110/71 73/108/69
f  74/110/71 54/109/70 55/111/72
f  55/111/72 75/112/73 74/110/71
f  75/112/73 55/111/72 56/113/74
f  56/113/74 76/114/75 75/112/73
f  76/114/75 56/113/74 57/115/76
f  57/115/76 77/116/77 76/114/75
f  77/116/77 57/115/76 58/117/78
f  58/117/78 78/118/79 77/116/77
f  78/118/79 58/117/78 59/119/80
f  59/119/80 79/120/81 78/118/79
f  79/120/81 59/119/80 60/121/82
f  60/121/82 80/122/83 79/120/81
f  80/122/83 60/121/82 41/84/45
f  41/84/45 61/83/44 80/122/83
f  17/17/10 15/15/8 13/13/6
f  17/17/10 13/13/6 11/11/4
f  17/17/10 11/11/4 9/9/3
f  17/17/10 9/9/3 7/7/3
f  17/17/10 7/7/3 5/5/3
f  17/17/10 5/5/3 3/3/3
f  17/17/10 3/3/3 2/2/2
f  17/17/10 2/2/2 39/39/22
f  17/17/10 39/39/22 37/37/10
f  17/17/10 37/37/10 35/35/12
f  17/17/10 35/35/12 33/33/15
f  17/17/10 33/33/15 31/31/17
f  17/17/10 31/31/17 29/29/15
f  17/17/10 29/29/15 27/27/14
f  17/17/10 27/27/14 25/25/14
f  17/17/10 25/25/14 23/23/10
f  17/17/10 23/23/10 21/21/14
f  21/21/14 19/19/12 17/17/10
f  74/110/71 75/112/73 76/114/75
f  74/110/71 76/114/75 77/116/77
f  74/110/71 77/116/77 78/118/79
f  74/110/71 78/118/79 79/120/81
f  74/110/71 79/120/81 80/122/83
f  74/110/71 80/122/83 61/83/44
f  74/110/71 61/83/44 62/86/47
f  74/110/71 62/86/47 63/88/49
f  74/110/71 63/88/49 64/90/51
f  74/110/71 64/90/51 65/92/53
f  74/110/71 65/92/53 66/94/55
f  74/110/71 66/94/55 67/96/57
f  74/110/71 67/96/57 68/98/59
f  74/110/71 68/98/59 69/100/61
f  74/110/71 69/100/61 70/102/63
f  74/110/71 70/102/63 71/104/65
f  74/110/71 71/104/65 72/106/67
f  72/106/67 73/108/69 74/110/71

